<svg width="212" height="210" viewBox="0 0 212 210" fill="none" xmlns="http://www.w3.org/2000/svg">
<path d="M0.680908 105C0.680908 47.0101 47.8339 0 106 0C164.166 0 211.319 47.0101 211.319 105C211.319 162.99 164.166 210 106 210C47.8339 210 0.680908 162.99 0.680908 105Z" fill="#FFEBEB"/>
<path fill-rule="evenodd" clip-rule="evenodd" d="M78.1281 144.482H134.023V88.7746H78.1281V144.482ZM94.1567 128.51H118V104.747H94.1567V128.51ZM143.922 164.5V67.4633H68.0778V164.5H143.922ZM131.085 45.5H147.778C157.623 45.5 165.681 53.535 165.681 63.35V146.65C165.681 155.089 159.724 162.208 151.796 164.039V57.8657H131.085V45.5V45.5ZM64.2217 45.5C54.3767 45.5 46.3192 53.535 46.3192 63.35V146.65C46.3192 155.089 52.2759 162.208 60.2039 164.039V55.5374L97.3593 45.5H64.2217V45.5ZM86.3368 96.9547H125.814V136.302H86.3368V96.9547Z" fill="#ED504F"/>
</svg>
