<svg width="110" height="110" viewBox="0 0 110 110" fill="none" xmlns="http://www.w3.org/2000/svg">
<path d="M0 55C0 24.6243 24.6243 0 55 0C85.3757 0 110 24.6243 110 55C110 85.3757 85.3757 110 55 110C24.6243 110 0 85.3757 0 55Z" fill="#FFEBEB"/>
<path fill-rule="evenodd" clip-rule="evenodd" d="M40.4443 75.6811H69.634V46.501H40.4443V75.6811V75.6811ZM48.8148 67.3149H61.2663V54.8673H48.8148V67.3149V67.3149ZM74.8035 86.1667V35.3379H35.1958V86.1667H74.8035ZM68.0998 23.8333H76.8172C81.9586 23.8333 86.1663 28.0422 86.1663 33.1833V76.8167C86.1663 81.2369 83.0556 84.9661 78.9155 85.9254V30.3106H68.0998V23.8333V23.8333ZM33.1821 23.8333C28.0408 23.8333 23.833 28.0422 23.833 33.1833V76.8167C23.833 81.2369 26.9437 84.9661 31.0839 85.9254V29.091L50.4873 23.8333H33.1821V23.8333ZM44.7311 50.7858H65.3472V71.3964H44.7311V50.7858V50.7858Z" fill="#ED504F"/>
</svg>
