<svg width="186" height="174" viewBox="0 0 186 174" fill="none" xmlns="http://www.w3.org/2000/svg">
<path d="M23.1748 134.28C24.5889 133.964 26.4357 133.806 28.7152 133.806C30.9947 133.806 32.8415 133.964 34.2557 134.28C35.6698 134.597 36.8623 135.177 37.8332 136.02C38.8252 136.864 39.5111 138.013 39.8911 139.469C40.2921 140.924 40.4926 142.811 40.4926 145.131C40.4926 148.105 39.9016 150.33 38.7197 151.807V151.933L41.569 151.743V156.204H28.3986C26.1825 156.204 24.399 156.067 23.0482 155.793C21.6974 155.498 20.5365 154.949 19.5656 154.148C18.5947 153.325 17.9088 152.197 17.5077 150.763C17.1278 149.329 16.9379 147.451 16.9379 145.131C16.9379 142.811 17.1278 140.924 17.5077 139.469C17.9088 138.013 18.5947 136.864 19.5656 136.02C20.5576 135.177 21.7607 134.597 23.1748 134.28ZM22.7632 145.131C22.7632 147.726 23.1748 149.487 23.998 150.415C24.8211 151.322 26.3935 151.775 28.7152 151.775C31.0369 151.775 32.6094 151.322 33.4325 150.415C34.2557 149.487 34.6672 147.726 34.6672 145.131C34.6672 142.495 34.2451 140.692 33.4008 139.722C32.5777 138.73 31.0158 138.235 28.7152 138.235C26.4146 138.235 24.8422 138.73 23.998 139.722C23.1748 140.692 22.7632 142.495 22.7632 145.131Z" fill="#1B1B1B"/>
<path d="M43.6964 156.204V137.475C43.6964 135.198 44.815 134.059 47.0523 134.059H58.893C61.0881 134.059 62.6183 134.66 63.4836 135.862C64.3701 137.064 64.8133 138.889 64.8133 141.335C64.8133 146.418 63.1354 148.959 59.7795 148.959H58.1965V149.118L65.2566 156.204H58.2598L53.2576 150.446C53.1732 150.341 53.0043 150.162 52.751 149.909C52.4978 149.634 52.3078 149.423 52.1812 149.276C52.0545 149.128 51.9068 148.938 51.7379 148.706C51.5691 148.474 51.4424 148.242 51.358 148.01C51.2947 147.778 51.263 147.546 51.263 147.314V146.808C51.263 146.049 51.5269 145.532 52.0545 145.258C52.5822 144.963 53.4053 144.815 54.524 144.815H56.3919C57.405 144.815 58.0909 144.562 58.4498 144.056C58.8086 143.55 58.988 142.706 58.988 141.525C58.988 140.386 58.7875 139.595 58.3864 139.152C57.9854 138.709 57.2467 138.488 56.1703 138.488H50.8831C50.3343 138.488 49.9439 138.604 49.7117 138.836C49.5006 139.047 49.3951 139.426 49.3951 139.975V156.204H43.6964Z" fill="#1B1B1B"/>
<path d="M66.9934 149.782V145.669H79.4039V149.782H66.9934Z" fill="#1B1B1B"/>
<path d="M105.109 140.924L100.55 153.642C100.191 154.633 99.7689 155.35 99.2834 155.793C98.798 156.236 97.9854 156.457 96.8456 156.457C95.6848 156.457 94.8616 156.236 94.3762 155.793C93.8908 155.35 93.4686 154.633 93.1098 153.642L88.5825 140.924C88.3925 140.418 88.2342 140.165 88.1076 140.165C87.8965 140.165 87.791 140.397 87.791 140.861L87.9493 156.204H82.2506V137.222C82.2506 136.526 82.3983 135.936 82.6938 135.451C82.9893 134.966 83.3798 134.618 83.8652 134.407C84.3718 134.175 84.8467 134.017 85.2899 133.932C85.7542 133.848 86.2397 133.806 86.7462 133.806C89.1735 133.806 90.7776 134.892 91.5585 137.064L96.2124 149.845C96.4235 150.457 96.6346 150.763 96.8456 150.763C97.0567 150.763 97.2678 150.457 97.4788 149.845L102.133 137.064C102.914 134.892 104.507 133.806 106.913 133.806C109.932 133.806 111.441 134.945 111.441 137.222V156.204H105.742L105.932 140.861C105.932 140.397 105.816 140.165 105.584 140.165C105.457 140.165 105.299 140.418 105.109 140.924Z" fill="#1B1B1B"/>
<path d="M130.57 156.204H120.439C117.843 156.204 116.123 155.603 115.279 154.401C114.456 153.199 114.044 150.984 114.044 147.757C114.044 145.943 114.171 144.499 114.424 143.423C114.677 142.347 115.152 141.493 115.849 140.861C116.545 140.207 117.4 139.774 118.413 139.563C119.447 139.353 120.84 139.247 122.592 139.247C124.112 139.247 125.346 139.331 126.296 139.5C127.246 139.648 128.111 139.954 128.892 140.418C129.694 140.882 130.264 141.567 130.602 142.474C130.961 143.381 131.14 144.551 131.14 145.986C131.14 148.306 130.264 149.466 128.512 149.466H119.046C119.046 150.562 119.278 151.374 119.743 151.902C120.228 152.408 121.115 152.661 122.402 152.661H130.57V156.204ZM119.046 146.049H125.188C125.8 146.049 126.106 145.711 126.106 145.037C126.106 144.256 125.747 143.687 125.03 143.328C124.333 142.97 123.521 142.79 122.592 142.79C121.368 142.79 120.471 143.033 119.901 143.518C119.331 144.003 119.046 144.847 119.046 146.049Z" fill="#1B1B1B"/>
<path d="M133.317 156.204V142.601C133.317 140.491 134.372 139.437 136.483 139.437H143.321C145.39 139.437 147.004 139.933 148.165 140.924C149.326 141.894 149.906 143.413 149.906 145.479V156.204H144.967V146.745C144.967 145.458 144.693 144.53 144.144 143.961C143.617 143.37 142.73 143.075 141.485 143.075H139.364C138.963 143.075 138.678 143.159 138.509 143.328C138.34 143.497 138.256 143.782 138.256 144.182V156.204H133.317Z" fill="#1B1B1B"/>
<path d="M169.421 139.437V153.041C169.421 155.15 168.366 156.204 166.255 156.204H159.164C157.095 156.204 155.48 155.719 154.32 154.749C153.159 153.779 152.578 152.26 152.578 150.193V139.437H157.517V148.928C157.517 150.214 157.792 151.153 158.34 151.743C158.889 152.313 159.786 152.598 161.031 152.598H163.343C163.744 152.598 164.029 152.513 164.197 152.345C164.366 152.176 164.451 151.891 164.451 151.49V139.437H169.421Z" fill="#1B1B1B"/>
<path d="M36.1383 59.3182C36.1383 27.9401 61.5944 2.5 93 2.5C124.406 2.5 149.862 27.9401 149.862 59.3182C149.862 90.6963 124.406 116.136 93 116.136C61.5944 116.136 36.1383 90.6963 36.1383 59.3182Z" fill="#FFEBEB" stroke="#ED504F" stroke-width="5"/>
<path fill-rule="evenodd" clip-rule="evenodd" d="M77.2904 81.6225H108.795V50.1514H77.2904V81.6225ZM86.3247 72.5995H99.7636V59.1746H86.3247V72.5995ZM114.374 92.9314V38.1119H71.6256V92.9314H114.374ZM107.139 25.7041H116.548C122.097 25.7041 126.638 30.2434 126.638 35.7882V82.8473C126.638 87.6146 123.281 91.6365 118.812 92.6712V32.6899H107.139V25.7041V25.7041ZM69.4522 25.7041C63.9032 25.7041 59.3617 30.2434 59.3617 35.7882V82.8473C59.3617 87.6146 62.7191 91.6365 67.1876 92.6712V31.3746L88.1297 25.7041H69.4522V25.7041ZM81.9171 54.7727H104.168V77.0014H81.9171V54.7727Z" fill="#ED504F"/>
</svg>
