<svg width="340" height="110" viewBox="0 0 340 110" fill="none" xmlns="http://www.w3.org/2000/svg">
<path d="M143.269 40.9667C145.144 40.5443 147.592 40.333 150.614 40.333C153.637 40.333 156.085 40.5443 157.96 40.9667C159.835 41.3892 161.416 42.1638 162.703 43.2904C164.018 44.417 164.928 45.9521 165.431 47.8955C165.963 49.8389 166.229 52.3598 166.229 55.458C166.229 59.4294 165.445 62.4009 163.878 64.3725V64.5415L167.656 64.288V70.245H150.195C147.256 70.245 144.892 70.0619 143.101 69.6958C141.31 69.3015 139.771 68.5692 138.484 67.4989C137.197 66.4004 136.287 64.8935 135.756 62.9783C135.252 61.063 135 58.5562 135 55.458C135 52.3598 135.252 49.8389 135.756 47.8955C136.287 45.9521 137.197 44.417 138.484 43.2904C139.799 42.1638 141.394 41.3892 143.269 40.9667ZM142.723 55.458C142.723 58.9224 143.269 61.2742 144.36 62.5135C145.452 63.7246 147.536 64.3302 150.614 64.3302C153.693 64.3302 155.777 63.7246 156.869 62.5135C157.96 61.2742 158.506 58.9224 158.506 55.458C158.506 51.9373 157.946 49.5291 156.827 48.2335C155.735 46.9097 153.665 46.2478 150.614 46.2478C147.564 46.2478 145.48 46.9097 144.36 48.2335C143.269 49.5291 142.723 51.9373 142.723 55.458Z" fill="#1E1E1E"/>
<path d="M170.476 70.245V45.2338C170.476 42.1919 171.959 40.671 174.926 40.671H190.624C193.534 40.671 195.563 41.4737 196.71 43.0792C197.886 44.6846 198.473 47.1209 198.473 50.3882C198.473 57.1761 196.249 60.5701 191.799 60.5701H189.701V60.7813L199.061 70.245H189.785L183.153 62.5558C183.041 62.4149 182.817 62.1755 182.481 61.8375C182.145 61.4714 181.893 61.1897 181.725 60.9926C181.558 60.7954 181.362 60.5419 181.138 60.2321C180.914 59.9223 180.746 59.6124 180.634 59.3026C180.55 58.9928 180.508 58.683 180.508 58.3732V57.6972C180.508 56.6832 180.858 55.9932 181.558 55.627C182.257 55.2327 183.348 55.0355 184.832 55.0355H187.308C188.651 55.0355 189.561 54.6975 190.036 54.0216C190.512 53.3456 190.75 52.2189 190.75 50.6417C190.75 49.1207 190.484 48.0645 189.952 47.473C189.421 46.8815 188.441 46.5858 187.014 46.5858H180.005C179.277 46.5858 178.759 46.7407 178.451 47.0505C178.172 47.3322 178.032 47.8392 178.032 48.5715V70.245H170.476Z" fill="#1E1E1E"/>
<path d="M201.364 61.6685V56.1762H217.817V61.6685H201.364Z" fill="#1E1E1E"/>
<path d="M251.897 49.8389L245.853 66.8229C245.377 68.1467 244.817 69.1043 244.174 69.6958C243.53 70.2873 242.453 70.583 240.942 70.583C239.403 70.583 238.311 70.2873 237.668 69.6958C237.024 69.1043 236.464 68.1467 235.989 66.8229L229.986 49.8389C229.734 49.163 229.525 48.825 229.357 48.825C229.077 48.825 228.937 49.1348 228.937 49.7544L229.147 70.245H221.591V44.8959C221.591 43.9664 221.787 43.1777 222.179 42.5299C222.571 41.8821 223.089 41.4174 223.732 41.1357C224.404 40.8259 225.033 40.6147 225.621 40.502C226.237 40.3893 226.88 40.333 227.552 40.333C230.77 40.333 232.896 41.7835 233.932 44.6846L240.102 61.753C240.382 62.5698 240.662 62.9783 240.942 62.9783C241.221 62.9783 241.501 62.5698 241.781 61.753L247.951 44.6846C248.987 41.7835 251.099 40.333 254.289 40.333C258.291 40.333 260.292 41.854 260.292 44.8959V70.245H252.736L252.988 49.7544C252.988 49.1348 252.834 48.825 252.526 48.825C252.359 48.825 252.149 49.163 251.897 49.8389Z" fill="#1E1E1E"/>
<path d="M285.654 70.245H272.222C268.78 70.245 266.499 69.4423 265.38 67.8368C264.289 66.2314 263.743 63.274 263.743 58.9646C263.743 56.5424 263.911 54.613 264.247 53.1766C264.583 51.7401 265.212 50.5994 266.136 49.7544C267.059 48.8813 268.192 48.3039 269.536 48.0223C270.907 47.7406 272.754 47.5998 275.076 47.5998C277.091 47.5998 278.728 47.7124 279.987 47.9378C281.246 48.1349 282.394 48.5433 283.429 49.163C284.492 49.7826 285.248 50.698 285.696 51.9091C286.171 53.1202 286.409 54.6834 286.409 56.5987C286.409 59.6969 285.248 61.2461 282.925 61.2461H270.375C270.375 62.7107 270.683 63.7951 271.298 64.4992C271.942 65.1752 273.117 65.5132 274.824 65.5132H285.654V70.245ZM270.375 56.6832H278.518C279.329 56.6832 279.735 56.2326 279.735 55.3313C279.735 54.2891 279.26 53.5287 278.308 53.0498C277.385 52.571 276.307 52.3316 275.076 52.3316C273.453 52.3316 272.264 52.6555 271.508 53.3033C270.753 53.9511 270.375 55.0778 270.375 56.6832Z" fill="#1E1E1E"/>
<path d="M289.295 70.245V52.0781C289.295 49.2615 290.694 47.8533 293.492 47.8533H302.559C305.301 47.8533 307.442 48.5152 308.981 49.8389C310.52 51.1346 311.289 53.1625 311.289 55.9227V70.245H304.741V57.6127C304.741 55.8946 304.378 54.6553 303.65 53.8948C302.95 53.1062 301.775 52.7118 300.124 52.7118H297.312C296.78 52.7118 296.402 52.8245 296.179 53.0498C295.955 53.2752 295.843 53.6554 295.843 54.1905V70.245H289.295Z" fill="#1E1E1E"/>
<path d="M337.162 47.8533V66.0202C337.162 68.8367 335.763 70.245 332.965 70.245H323.563C320.82 70.245 318.68 69.5972 317.14 68.3016C315.601 67.006 314.832 64.978 314.832 62.2178V47.8533H321.38V60.5278C321.38 62.2459 321.744 63.4993 322.471 64.288C323.199 65.0484 324.388 65.4287 326.039 65.4287H329.103C329.635 65.4287 330.013 65.316 330.236 65.0907C330.46 64.8654 330.572 64.4851 330.572 63.95V47.8533H337.162Z" fill="#1E1E1E"/>
<path d="M0 55C0 24.6243 24.6243 0 55 0C85.3757 0 110 24.6243 110 55C110 85.3757 85.3757 110 55 110C24.6243 110 0 85.3757 0 55Z" fill="#FFEBEB"/>
<path fill-rule="evenodd" clip-rule="evenodd" d="M40.4443 75.6811H69.634V46.501H40.4443V75.6811ZM48.8148 67.3149H61.2663V54.8673H48.8148V67.3149ZM74.8035 86.1667V35.3379H35.1958V86.1667H74.8035ZM68.0998 23.8333H76.8172C81.9586 23.8333 86.1663 28.0422 86.1663 33.1833V76.8167C86.1663 81.2369 83.0556 84.9661 78.9155 85.9254V30.3106H68.0998V23.8333V23.8333ZM33.1821 23.8333C28.0408 23.8333 23.833 28.0422 23.833 33.1833V76.8167C23.833 81.2369 26.9437 84.9661 31.0839 85.9254V29.091L50.4873 23.8333H33.1821V23.8333ZM44.7311 50.7858H65.3472V71.3964H44.7311V50.7858Z" fill="#ED504F"/>
</svg>
