<svg width="49" height="35" viewBox="0 0 49 35" fill="none" xmlns="http://www.w3.org/2000/svg">
<path d="M22.8262 12.4047C22.2023 11.8017 22.2023 10.824 22.8262 10.221C23.4504 9.61794 24.462 9.61794 25.0859 10.221L30.3587 15.3164L35.6312 10.221C36.2551 9.61794 37.2667 9.61794 37.8909 10.221C38.5148 10.8239 38.5148 11.8017 37.8909 12.4047L32.6181 17.5L37.8909 22.5954C38.5148 23.1983 38.5148 24.1761 37.8909 24.779C37.2667 25.3821 36.2551 25.3821 35.6312 24.779L30.3587 19.6837L25.0859 24.779C24.462 25.3821 23.4504 25.3821 22.8265 24.779C22.2023 24.176 22.2023 23.1983 22.8265 22.5953L28.099 17.5001L22.8262 12.4047Z" fill="#5B5B5B"/>
<path fill-rule="evenodd" clip-rule="evenodd" d="M16.2368 1.80901L0 17.5L16.2368 33.191C17.4354 34.3493 19.061 35 20.7561 35H42.6087C46.1385 35 49 32.2347 49 28.8235V6.17647C49 2.76529 46.1385 0 42.6087 0H20.7561C19.061 0 17.4354 0.650796 16.2368 1.80901ZM42.6087 32.3236H20.7561C19.7955 32.3236 18.8743 31.9547 18.195 31.2984L3.91681 17.5L18.195 3.70158C18.8743 3.04526 19.7955 2.67645 20.7561 2.67645H42.6087C44.6088 2.67645 46.2303 4.24343 46.2303 6.17647V28.8235C46.2303 30.7566 44.6088 32.3236 42.6087 32.3236Z" fill="#5B5B5B"/>
</svg>
