<svg xmlns="http://www.w3.org/2000/svg" width="256" height="256"><path fill-opacity=".016" d="M0 128.004v128.004l128.25-.254 128.25-.254.254-127.75L257.008 0H0v128.004m.485.496c0 70.4.119 99.053.265 63.672.146-35.38.146-92.98 0-128C.604 29.153.485 58.1.485 128.5" fill="#fff" fill-rule="evenodd"/><path fill-opacity=".311" d="M70.558 38.492c-7.466 2.66-12.571 8.131-14.593 15.638-.665 2.47-.93 23.075-.748 58.099L55.5 166.5l2.5 4.411c2.835 5.001 8.184 9.648 12.243 10.635l2.743.667.257-66.263.257-66.262 21.33-5.758c11.732-3.166 21.594-6.021 21.917-6.344.322-.322-9.051-.566-20.83-.542-15.756.032-22.459.415-25.359 1.448m88.109-.825c-.367.366-.667 3.966-.667 8V53h25V182.217l2.689-.675c5.728-1.438 11.938-7.765 14.173-14.441 1.667-4.978 1.59-108.846-.084-114.485-1.754-5.905-9.069-12.948-14.999-14.441-4.946-1.246-24.985-1.636-26.112-.508M82 123.5V183h92V64H82v59.5m12 1V158h68V91H94v33.5m10-.5v24h48v-48h-48v24m10 0v14h28v-28h-28v14m-40.8 75.2c-.778.778-1.2 4.822-1.2 11.5V221h6l.079-6.75c.043-3.713.33-6.075.637-5.25.308.825 1.414 3.821 2.459 6.657 3.275 8.893 7.112 8.071 10.862-2.328L94.5 206.5l.294 7.25c.282 6.952.394 7.25 2.75 7.25H100v-10.933c0-10.054-.161-10.983-2-11.567-3.926-1.246-5.641.372-8.763 8.271l-3.055 7.729-1.682-4c-5.073-12.065-5.343-12.5-7.744-12.5-1.296 0-2.896.54-3.556 1.2m52 0c-.778.778-1.2 4.822-1.2 11.5V221h3.109c2.965 0 3.091-.163 2.701-3.5l-.408-3.5h5.644c6.97 0 9.409-2.122 9.409-8.187 0-5.894-2.791-7.813-11.366-7.813-3.869 0-7.195.506-7.889 1.2m-22.538 4.538c-.29.469 1.067 4.369 3.016 8.667 2.994 6.603 3.371 8.192 2.433 10.251-1.618 3.551-1.39 4.344 1.25 4.344 1.984 0 2.964-1.315 6.144-8.25 7.149-15.59 6.935-14.754 3.758-14.726-2.36.02-3.102.785-5.088 5.25l-2.326 5.226-2.231-5.5c-1.587-3.91-2.838-5.589-4.33-5.807-1.155-.169-2.336.076-2.626.545M130 206c0 3.046.094 3.108 4.25 2.807 3.785-.273 4.25-.581 4.25-2.807s-.465-2.534-4.25-2.807c-4.156-.301-4.25-.239-4.25 2.807m22-1.76c-3.43 1.809-5.242 5.954-4.449 10.181.948 5.054 3.588 6.964 9.625 6.964 4.111 0 5.454-.445 6.959-2.303 2.591-3.201 2.558-11.145-.057-13.512-2.529-2.288-8.925-2.993-12.078-1.33m19.25-.232c-1.618.667-2.25 1.759-2.25 3.888 0 3.716 2.079 5.841 6.532 6.676 5.131.963 4.206 2.428-1.532 2.428-4.333 0-5 .267-5 2 0 1.804.667 2 6.8 2 7.22 0 9.2-.978 9.2-4.545 0-2.743-2.62-5.045-6.739-5.921-5.241-1.114-4.821-2.534.75-2.534 4.746 0 5.104-.168 4.809-2.25-.278-1.957-.972-2.277-5.32-2.46-2.75-.115-6.012.208-7.25.718m-17.831 5.344c-.313.813-.422 2.755-.244 4.314.273 2.377.843 2.884 3.541 3.145 2.711.262 3.313-.079 3.838-2.171 1.097-4.368.199-6.114-3.319-6.454-2.167-.209-3.438.179-3.816 1.166" fill="#fff" fill-rule="evenodd"/><path fill-opacity=".341" d="M68.5 39.896c-4.902 2.269-8.888 6.392-10.947 11.322-2.334 5.588-2.334 111.976 0 117.564 1.963 4.698 5.886 8.856 10.69 11.326l3.743 1.925.257-66.266L72.5 49.5 93 43.815l20.5-5.684-20.5-.044c-17.906-.038-21.006.191-24.5 1.809M159 45v7h25v130.125l5.102-2.777c3.762-2.047 5.862-4.101 7.991-7.813l2.888-5.035.01-56.29c.009-53.437-.088-56.478-1.899-60-4.913-9.551-10.807-12.21-27.06-12.21H159v7m-77 78.5V182h92V65H82v58.5m12 .5v34h68V90H94v34m10.685-23.351c-.377.376-.685 11.184-.685 24.018V148h48.036l-.268-23.75-.268-23.75-23.065-.268c-12.686-.147-23.374.04-23.75.417m9.008 8.991c-.381.382-.693 7.143-.693 15.027V139H143.053l-.276-14.75-.277-14.75-14.057-.276c-7.731-.152-14.369.035-14.75.416m-40.122 89.931c-1.217 1.218-1.571 3.808-1.571 11.5 0 9.879.012 9.929 2.458 9.929 2.374 0 2.468-.265 2.75-7.75l.292-7.75 2.867 7.326c4.344 11.104 7.367 11 11.575-.399L94.5 205.5l.292 7.75c.282 7.485.376 7.75 2.75 7.75 2.454 0 2.458-.017 2.458-10.465 0-9.441-.196-10.569-2-11.535-3.309-1.771-5.496.373-8.556 8.387-1.57 4.113-3.154 7.292-3.519 7.066-.366-.226-1.696-3.233-2.955-6.682-3.438-9.415-5.972-11.626-9.399-8.2m51.096.096c-.367.366-.667 5.316-.667 11 0 10.287.011 10.333 2.44 10.333 2.097 0 2.483-.526 2.75-3.75l.31-3.75 5.965-.306c3.281-.169 6.544-.786 7.25-1.373 1.624-1.347 1.687-10.019.085-11.621-1.272-1.272-16.934-1.733-18.133-.533m4.333 6.278c0 3.005.084 3.055 5.066 3.055 4.937 0 5.059-.07 4.75-2.75-.289-2.518-.716-2.776-5.066-3.055-4.697-.301-4.75-.27-4.75 2.75m-26-1.07c0 .481 1.522 4.216 3.383 8.299 3.155 6.924 3.285 7.611 1.93 10.198-1.421 2.712-1.395 2.767 1.143 2.451 2.241-.279 3.263-1.791 7.484-11.073l4.888-10.75h-2.469c-2.02 0-2.848.911-4.548 5-1.143 2.75-2.408 5-2.811 5s-1.668-2.25-2.811-5c-1.54-3.704-2.611-5-4.134-5-1.13 0-2.055.394-2.055.875M150 206c-1.407 1.407-2 3.333-2 6.5 0 6.154 2.425 8.505 8.75 8.485 2.613-.009 5.245-.346 5.85-.75 3.728-2.489 4.571-11.064 1.4-14.235-1.467-1.467-3.333-2-7-2s-5.533.533-7 2m20.046-.555c-.66.795-1.052 2.467-.873 3.717.311 2.157 1.292 2.864 8.327 5.999 2.978 1.327 2.959 1.339-2.75 1.638-4.931.258-5.75.578-5.75 2.251 0 1.748.727 1.95 7.021 1.95 6.42 0 7.115-.204 8.103-2.374 1.659-3.64-.362-6.405-5.656-7.738-5.794-1.459-5.684-2.7.273-3.083 3.572-.23 4.823-.736 5.073-2.055.289-1.52-.515-1.75-6.118-1.75-4.405 0-6.831.458-7.65 1.445m-15.349 2.255c-1.442.373-1.743 1.304-1.5 4.634.294 4.037.412 4.166 3.803 4.166 3.261 0 3.522-.236 3.829-3.456.231-2.427-.198-3.841-1.441-4.75-.974-.712-2.022-1.242-2.329-1.178-.308.064-1.371.326-2.362.584" fill="#fff" fill-rule="evenodd"/><path fill-opacity=".763" d="M73.713 199.621c-.392.392-.713 5.362-.713 11.046 0 9.595.14 10.333 1.96 10.333 1.764 0 1.988-.822 2.25-8.25l.29-8.25 3.116 8c2.679 6.88 3.448 8 5.491 8 2.051 0 2.785-1.09 5.384-7.994l3.009-7.994.29 8.244c.283 8.012.36 8.244 2.75 8.244 2.439 0 2.46-.08 2.46-9.418 0-11.37-.385-12.582-4.002-12.582-2.57 0-3.065.685-6.315 8.75l-3.526 8.75-1.63-3.841c-.897-2.113-2.406-5.938-3.354-8.5-1.355-3.662-2.262-4.722-4.236-4.955-1.381-.163-2.833.025-3.224.417m51.283 1.386c-.603 1.128-.947 5.836-.785 10.75.271 8.204.428 8.763 2.539 9.063 2.017.286 2.25-.102 2.25-3.75V213h5.929c7.093 0 9.071-1.508 9.071-6.916 0-5.644-2.194-7.084-10.794-7.084-6.12 0-7.288.286-8.21 2.007m4.421 1.91c-.23.229-.417 1.916-.417 3.75 0 3.127.211 3.333 3.418 3.333 1.88 0 4.13-.273 5-.607 1.891-.725 2.179-6.356.332-6.47-5.886-.362-7.976-.364-8.333-.006M103 204.445c0 .244 1.598 3.951 3.552 8.238 2.916 6.399 3.363 8.207 2.5 10.103-1.393 3.057-1.356 3.214.776 3.214 1.611 0 5.484-7.384 10.881-20.75.304-.753-.295-1.25-1.506-1.25-1.495 0-2.597 1.412-4.291 5.5-1.254 3.025-2.595 5.5-2.98 5.5-.385 0-1.704-2.475-2.932-5.5-1.595-3.93-2.77-5.5-4.116-5.5-1.036 0-1.884.2-1.884.445m48.889.217c-2.043.547-3.889 4.548-3.889 8.431 0 6.771 9.523 10.543 15.139 5.995 3.385-2.74 3.385-10.436 0-13.176-2.221-1.799-7.148-2.346-11.25-1.25m18.682.909c-3.257 3.258-1.005 6.696 5.539 8.459 5.272 1.419 4.523 3.386-1.438 3.775-3.267.213-4.672.739-4.672 1.75 0 1.096 1.419 1.445 5.878 1.445 6.412 0 8.505-1.341 7.949-5.093-.352-2.37-1.244-3.039-7.149-5.362-4.938-1.942-3.876-3.545 2.35-3.545 3.953 0 4.797-.292 4.334-1.5-.815-2.122-10.652-2.067-12.791.071M153.2 208.2c-2.986 2.986-.333 9.8 3.815 9.8 2.103 0 4.985-3.555 4.985-6.151 0-3.916-6.032-6.417-8.8-3.649" fill="#fff" fill-rule="evenodd"/></svg>